<mxfile host="app.diagrams.net" modified="2023-11-06T15:05:08.323Z" agent="Mozilla/5.0 (Windows NT 10.0; Win64; x64) AppleWebKit/537.36 (KHTML, like Gecko) Chrome/119.0.0.0 Safari/537.36" etag="xKoav5jR2vHiZObJ7yDR" version="22.0.8" type="device">
  <diagram name="1 oldal" id="1VU_W7MMBEGvv-ph0R7t">
    <mxGraphModel dx="2607" dy="1455" grid="1" gridSize="10" guides="1" tooltips="1" connect="1" arrows="1" fold="1" page="1" pageScale="1" pageWidth="1800" pageHeight="1500" math="0" shadow="0">
      <root>
        <mxCell id="0" />
        <mxCell id="1" parent="0" />
        <mxCell id="7nE0LP9qghIU5HuD1sIE-1" value="IY5AM2_XML" style="ellipse;shape=doubleEllipse;whiteSpace=wrap;html=1;" vertex="1" parent="1">
          <mxGeometry x="1650.38" y="40" width="100" height="60" as="geometry" />
        </mxCell>
        <mxCell id="7nE0LP9qghIU5HuD1sIE-2" value="Cars" style="ellipse;shape=doubleEllipse;whiteSpace=wrap;html=1;" vertex="1" parent="1">
          <mxGeometry x="940" y="440" width="100" height="60" as="geometry" />
        </mxCell>
        <mxCell id="7nE0LP9qghIU5HuD1sIE-3" value="Driver" style="ellipse;shape=doubleEllipse;whiteSpace=wrap;html=1;" vertex="1" parent="1">
          <mxGeometry x="257.5" y="440" width="100" height="60" as="geometry" />
        </mxCell>
        <mxCell id="7nE0LP9qghIU5HuD1sIE-4" value="Transaction" style="ellipse;shape=doubleEllipse;whiteSpace=wrap;html=1;" vertex="1" parent="1">
          <mxGeometry x="1400" y="440" width="100" height="60" as="geometry" />
        </mxCell>
        <mxCell id="7nE0LP9qghIU5HuD1sIE-5" value="Admin" style="ellipse;shape=doubleEllipse;whiteSpace=wrap;html=1;" vertex="1" parent="1">
          <mxGeometry x="2750" y="450" width="100" height="60" as="geometry" />
        </mxCell>
        <mxCell id="7nE0LP9qghIU5HuD1sIE-6" value="Customer" style="ellipse;shape=doubleEllipse;whiteSpace=wrap;html=1;" vertex="1" parent="1">
          <mxGeometry x="2015.62" y="407.5" width="100" height="60" as="geometry" />
        </mxCell>
        <mxCell id="7nE0LP9qghIU5HuD1sIE-8" value="phone_number" style="ellipse;whiteSpace=wrap;html=1;" vertex="1" parent="1">
          <mxGeometry x="67.5" y="580" width="90" height="60" as="geometry" />
        </mxCell>
        <mxCell id="7nE0LP9qghIU5HuD1sIE-9" value="gender" style="ellipse;whiteSpace=wrap;html=1;" vertex="1" parent="1">
          <mxGeometry x="177.5" y="580" width="90" height="60" as="geometry" />
        </mxCell>
        <mxCell id="7nE0LP9qghIU5HuD1sIE-10" value="address" style="ellipse;whiteSpace=wrap;html=1;" vertex="1" parent="1">
          <mxGeometry x="337.5" y="580" width="90" height="60" as="geometry" />
        </mxCell>
        <mxCell id="7nE0LP9qghIU5HuD1sIE-11" value="name" style="ellipse;whiteSpace=wrap;html=1;" vertex="1" parent="1">
          <mxGeometry x="527.5" y="580" width="92.5" height="60" as="geometry" />
        </mxCell>
        <mxCell id="7nE0LP9qghIU5HuD1sIE-12" value="" style="endArrow=none;html=1;rounded=0;entryX=0.5;entryY=1;entryDx=0;entryDy=0;exitX=0.5;exitY=0;exitDx=0;exitDy=0;" edge="1" parent="1" source="7nE0LP9qghIU5HuD1sIE-8" target="7nE0LP9qghIU5HuD1sIE-3">
          <mxGeometry width="50" height="50" relative="1" as="geometry">
            <mxPoint x="377.5" y="710" as="sourcePoint" />
            <mxPoint x="427.5" y="660" as="targetPoint" />
          </mxGeometry>
        </mxCell>
        <mxCell id="7nE0LP9qghIU5HuD1sIE-13" value="" style="endArrow=none;html=1;rounded=0;entryX=0.5;entryY=1;entryDx=0;entryDy=0;exitX=0.5;exitY=0;exitDx=0;exitDy=0;" edge="1" parent="1" source="7nE0LP9qghIU5HuD1sIE-9" target="7nE0LP9qghIU5HuD1sIE-3">
          <mxGeometry width="50" height="50" relative="1" as="geometry">
            <mxPoint x="377.5" y="710" as="sourcePoint" />
            <mxPoint x="427.5" y="660" as="targetPoint" />
          </mxGeometry>
        </mxCell>
        <mxCell id="7nE0LP9qghIU5HuD1sIE-14" value="" style="endArrow=none;html=1;rounded=0;exitX=0;exitY=0.5;exitDx=0;exitDy=0;entryX=0.5;entryY=1;entryDx=0;entryDy=0;" edge="1" parent="1" source="7nE0LP9qghIU5HuD1sIE-15" target="7nE0LP9qghIU5HuD1sIE-8">
          <mxGeometry width="50" height="50" relative="1" as="geometry">
            <mxPoint x="367.5" y="430" as="sourcePoint" />
            <mxPoint x="417.5" y="380" as="targetPoint" />
          </mxGeometry>
        </mxCell>
        <mxCell id="7nE0LP9qghIU5HuD1sIE-15" value="" style="rounded=0;whiteSpace=wrap;html=1;direction=south;" vertex="1" parent="1">
          <mxGeometry x="90.63" y="695" width="43.75" height="70" as="geometry" />
        </mxCell>
        <mxCell id="7nE0LP9qghIU5HuD1sIE-16" value="" style="rounded=0;whiteSpace=wrap;html=1;direction=south;" vertex="1" parent="1">
          <mxGeometry x="200.63" y="695" width="43.75" height="70" as="geometry" />
        </mxCell>
        <mxCell id="7nE0LP9qghIU5HuD1sIE-17" value="" style="endArrow=none;html=1;rounded=0;entryX=0.5;entryY=1;entryDx=0;entryDy=0;exitX=0;exitY=0.5;exitDx=0;exitDy=0;" edge="1" parent="1" source="7nE0LP9qghIU5HuD1sIE-16" target="7nE0LP9qghIU5HuD1sIE-9">
          <mxGeometry width="50" height="50" relative="1" as="geometry">
            <mxPoint x="217.5" y="700" as="sourcePoint" />
            <mxPoint x="267.5" y="680" as="targetPoint" />
          </mxGeometry>
        </mxCell>
        <mxCell id="7nE0LP9qghIU5HuD1sIE-18" value="" style="ellipse;whiteSpace=wrap;html=1;" vertex="1" parent="1">
          <mxGeometry x="277.5" y="707.5" width="60" height="45" as="geometry" />
        </mxCell>
        <mxCell id="7nE0LP9qghIU5HuD1sIE-19" value="" style="ellipse;whiteSpace=wrap;html=1;" vertex="1" parent="1">
          <mxGeometry x="427.5" y="707.5" width="60" height="45" as="geometry" />
        </mxCell>
        <mxCell id="7nE0LP9qghIU5HuD1sIE-20" value="" style="ellipse;whiteSpace=wrap;html=1;" vertex="1" parent="1">
          <mxGeometry x="507.5" y="707.5" width="60" height="45" as="geometry" />
        </mxCell>
        <mxCell id="7nE0LP9qghIU5HuD1sIE-21" value="" style="ellipse;whiteSpace=wrap;html=1;" vertex="1" parent="1">
          <mxGeometry x="587.5" y="707.5" width="60" height="45" as="geometry" />
        </mxCell>
        <mxCell id="7nE0LP9qghIU5HuD1sIE-23" value="" style="endArrow=none;html=1;rounded=0;entryX=0.5;entryY=1;entryDx=0;entryDy=0;exitX=0.5;exitY=0;exitDx=0;exitDy=0;" edge="1" parent="1" source="7nE0LP9qghIU5HuD1sIE-18" target="7nE0LP9qghIU5HuD1sIE-10">
          <mxGeometry width="50" height="50" relative="1" as="geometry">
            <mxPoint x="437.5" y="800" as="sourcePoint" />
            <mxPoint x="487.5" y="750" as="targetPoint" />
          </mxGeometry>
        </mxCell>
        <mxCell id="7nE0LP9qghIU5HuD1sIE-24" value="driver_id" style="rhombus;whiteSpace=wrap;html=1;" vertex="1" parent="1">
          <mxGeometry x="427.5" y="430" width="80" height="80" as="geometry" />
        </mxCell>
        <mxCell id="7nE0LP9qghIU5HuD1sIE-26" value="" style="endArrow=none;html=1;rounded=0;entryX=0.5;entryY=1;entryDx=0;entryDy=0;exitX=0.5;exitY=0;exitDx=0;exitDy=0;" edge="1" parent="1" source="7nE0LP9qghIU5HuD1sIE-19" target="7nE0LP9qghIU5HuD1sIE-10">
          <mxGeometry width="50" height="50" relative="1" as="geometry">
            <mxPoint x="407.5" y="680" as="sourcePoint" />
            <mxPoint x="457.5" y="630" as="targetPoint" />
          </mxGeometry>
        </mxCell>
        <mxCell id="7nE0LP9qghIU5HuD1sIE-27" value="" style="endArrow=none;html=1;rounded=0;entryX=0.5;entryY=1;entryDx=0;entryDy=0;exitX=0.5;exitY=0;exitDx=0;exitDy=0;" edge="1" parent="1" source="7nE0LP9qghIU5HuD1sIE-33" target="7nE0LP9qghIU5HuD1sIE-10">
          <mxGeometry width="50" height="50" relative="1" as="geometry">
            <mxPoint x="367.5" y="820" as="sourcePoint" />
            <mxPoint x="457.5" y="630" as="targetPoint" />
          </mxGeometry>
        </mxCell>
        <mxCell id="7nE0LP9qghIU5HuD1sIE-28" value="" style="endArrow=none;html=1;rounded=0;entryX=0.5;entryY=1;entryDx=0;entryDy=0;exitX=0.5;exitY=0;exitDx=0;exitDy=0;" edge="1" parent="1" source="7nE0LP9qghIU5HuD1sIE-20" target="7nE0LP9qghIU5HuD1sIE-11">
          <mxGeometry width="50" height="50" relative="1" as="geometry">
            <mxPoint x="387.5" y="680" as="sourcePoint" />
            <mxPoint x="437.5" y="630" as="targetPoint" />
          </mxGeometry>
        </mxCell>
        <mxCell id="7nE0LP9qghIU5HuD1sIE-29" value="" style="endArrow=none;html=1;rounded=0;entryX=0.5;entryY=1;entryDx=0;entryDy=0;exitX=0.5;exitY=0;exitDx=0;exitDy=0;" edge="1" parent="1" source="7nE0LP9qghIU5HuD1sIE-21" target="7nE0LP9qghIU5HuD1sIE-11">
          <mxGeometry width="50" height="50" relative="1" as="geometry">
            <mxPoint x="387.5" y="680" as="sourcePoint" />
            <mxPoint x="577.5" y="660" as="targetPoint" />
          </mxGeometry>
        </mxCell>
        <mxCell id="7nE0LP9qghIU5HuD1sIE-30" value="" style="endArrow=none;html=1;rounded=0;entryX=0.5;entryY=1;entryDx=0;entryDy=0;exitX=0.5;exitY=0;exitDx=0;exitDy=0;" edge="1" parent="1" source="7nE0LP9qghIU5HuD1sIE-10" target="7nE0LP9qghIU5HuD1sIE-3">
          <mxGeometry width="50" height="50" relative="1" as="geometry">
            <mxPoint x="367.5" y="670" as="sourcePoint" />
            <mxPoint x="417.5" y="620" as="targetPoint" />
          </mxGeometry>
        </mxCell>
        <mxCell id="7nE0LP9qghIU5HuD1sIE-31" value="" style="endArrow=none;html=1;rounded=0;entryX=0.5;entryY=0;entryDx=0;entryDy=0;exitX=0.5;exitY=1;exitDx=0;exitDy=0;" edge="1" parent="1" source="7nE0LP9qghIU5HuD1sIE-3" target="7nE0LP9qghIU5HuD1sIE-11">
          <mxGeometry width="50" height="50" relative="1" as="geometry">
            <mxPoint x="377.5" y="680" as="sourcePoint" />
            <mxPoint x="427.5" y="630" as="targetPoint" />
          </mxGeometry>
        </mxCell>
        <mxCell id="7nE0LP9qghIU5HuD1sIE-32" value="" style="endArrow=none;html=1;rounded=0;entryX=1;entryY=0.5;entryDx=0;entryDy=0;exitX=0;exitY=0.5;exitDx=0;exitDy=0;" edge="1" parent="1" source="7nE0LP9qghIU5HuD1sIE-24" target="7nE0LP9qghIU5HuD1sIE-3">
          <mxGeometry width="50" height="50" relative="1" as="geometry">
            <mxPoint x="387.5" y="690" as="sourcePoint" />
            <mxPoint x="437.5" y="640" as="targetPoint" />
          </mxGeometry>
        </mxCell>
        <mxCell id="7nE0LP9qghIU5HuD1sIE-33" value="" style="ellipse;whiteSpace=wrap;html=1;" vertex="1" parent="1">
          <mxGeometry x="352.5" y="707.5" width="60" height="45" as="geometry" />
        </mxCell>
        <mxCell id="7nE0LP9qghIU5HuD1sIE-35" value="car_modell" style="ellipse;whiteSpace=wrap;html=1;" vertex="1" parent="1">
          <mxGeometry x="790" y="552.5" width="92.5" height="60" as="geometry" />
        </mxCell>
        <mxCell id="7nE0LP9qghIU5HuD1sIE-36" value="rent_price" style="ellipse;whiteSpace=wrap;html=1;" vertex="1" parent="1">
          <mxGeometry x="900" y="552.5" width="92.5" height="60" as="geometry" />
        </mxCell>
        <mxCell id="7nE0LP9qghIU5HuD1sIE-37" value="car_number" style="ellipse;whiteSpace=wrap;html=1;" vertex="1" parent="1">
          <mxGeometry x="1007.5" y="552.5" width="92.5" height="60" as="geometry" />
        </mxCell>
        <mxCell id="7nE0LP9qghIU5HuD1sIE-38" value="car_status" style="ellipse;whiteSpace=wrap;html=1;" vertex="1" parent="1">
          <mxGeometry x="1120" y="552.5" width="92.5" height="60" as="geometry" />
        </mxCell>
        <mxCell id="7nE0LP9qghIU5HuD1sIE-39" value="car_id" style="rhombus;whiteSpace=wrap;html=1;" vertex="1" parent="1">
          <mxGeometry x="900" y="317.5" width="80" height="80" as="geometry" />
        </mxCell>
        <mxCell id="7nE0LP9qghIU5HuD1sIE-40" value="" style="endArrow=none;html=1;rounded=0;entryX=0.5;entryY=1;entryDx=0;entryDy=0;exitX=0;exitY=0.5;exitDx=0;exitDy=0;" edge="1" parent="1" source="7nE0LP9qghIU5HuD1sIE-2" target="7nE0LP9qghIU5HuD1sIE-39">
          <mxGeometry width="50" height="50" relative="1" as="geometry">
            <mxPoint x="950" y="590" as="sourcePoint" />
            <mxPoint x="1000" y="540" as="targetPoint" />
          </mxGeometry>
        </mxCell>
        <mxCell id="7nE0LP9qghIU5HuD1sIE-41" value="" style="endArrow=none;html=1;rounded=0;entryX=0.5;entryY=1;entryDx=0;entryDy=0;exitX=0.5;exitY=0;exitDx=0;exitDy=0;" edge="1" parent="1" source="7nE0LP9qghIU5HuD1sIE-35" target="7nE0LP9qghIU5HuD1sIE-2">
          <mxGeometry width="50" height="50" relative="1" as="geometry">
            <mxPoint x="950" y="590" as="sourcePoint" />
            <mxPoint x="1000" y="540" as="targetPoint" />
          </mxGeometry>
        </mxCell>
        <mxCell id="7nE0LP9qghIU5HuD1sIE-42" value="" style="endArrow=none;html=1;rounded=0;entryX=0.5;entryY=1;entryDx=0;entryDy=0;exitX=0.5;exitY=0;exitDx=0;exitDy=0;" edge="1" parent="1" source="7nE0LP9qghIU5HuD1sIE-36" target="7nE0LP9qghIU5HuD1sIE-2">
          <mxGeometry width="50" height="50" relative="1" as="geometry">
            <mxPoint x="950" y="590" as="sourcePoint" />
            <mxPoint x="1000" y="540" as="targetPoint" />
          </mxGeometry>
        </mxCell>
        <mxCell id="7nE0LP9qghIU5HuD1sIE-43" value="" style="endArrow=none;html=1;rounded=0;entryX=0.5;entryY=1;entryDx=0;entryDy=0;exitX=0.5;exitY=0;exitDx=0;exitDy=0;" edge="1" parent="1" source="7nE0LP9qghIU5HuD1sIE-37" target="7nE0LP9qghIU5HuD1sIE-2">
          <mxGeometry width="50" height="50" relative="1" as="geometry">
            <mxPoint x="950" y="590" as="sourcePoint" />
            <mxPoint x="1000" y="540" as="targetPoint" />
          </mxGeometry>
        </mxCell>
        <mxCell id="7nE0LP9qghIU5HuD1sIE-44" value="" style="endArrow=none;html=1;rounded=0;entryX=0.5;entryY=1;entryDx=0;entryDy=0;exitX=0.5;exitY=0;exitDx=0;exitDy=0;" edge="1" parent="1" source="7nE0LP9qghIU5HuD1sIE-38" target="7nE0LP9qghIU5HuD1sIE-2">
          <mxGeometry width="50" height="50" relative="1" as="geometry">
            <mxPoint x="950" y="590" as="sourcePoint" />
            <mxPoint x="1000" y="540" as="targetPoint" />
          </mxGeometry>
        </mxCell>
        <mxCell id="7nE0LP9qghIU5HuD1sIE-46" value="car_status" style="ellipse;whiteSpace=wrap;html=1;" vertex="1" parent="1">
          <mxGeometry x="1307.5" y="540" width="92.5" height="60" as="geometry" />
        </mxCell>
        <mxCell id="7nE0LP9qghIU5HuD1sIE-47" value="car_status" style="ellipse;whiteSpace=wrap;html=1;" vertex="1" parent="1">
          <mxGeometry x="1403.75" y="540" width="92.5" height="60" as="geometry" />
        </mxCell>
        <mxCell id="7nE0LP9qghIU5HuD1sIE-48" value="car_status" style="ellipse;whiteSpace=wrap;html=1;" vertex="1" parent="1">
          <mxGeometry x="1500" y="540" width="92.5" height="60" as="geometry" />
        </mxCell>
        <mxCell id="7nE0LP9qghIU5HuD1sIE-49" value="" style="endArrow=none;html=1;rounded=0;entryX=0.5;entryY=1;entryDx=0;entryDy=0;exitX=0.5;exitY=0;exitDx=0;exitDy=0;" edge="1" parent="1" source="7nE0LP9qghIU5HuD1sIE-46" target="7nE0LP9qghIU5HuD1sIE-4">
          <mxGeometry width="50" height="50" relative="1" as="geometry">
            <mxPoint x="1350" y="590" as="sourcePoint" />
            <mxPoint x="1400" y="540" as="targetPoint" />
          </mxGeometry>
        </mxCell>
        <mxCell id="7nE0LP9qghIU5HuD1sIE-50" value="" style="endArrow=none;html=1;rounded=0;entryX=0.5;entryY=1;entryDx=0;entryDy=0;exitX=0.5;exitY=0;exitDx=0;exitDy=0;" edge="1" parent="1" source="7nE0LP9qghIU5HuD1sIE-47" target="7nE0LP9qghIU5HuD1sIE-4">
          <mxGeometry width="50" height="50" relative="1" as="geometry">
            <mxPoint x="1350" y="590" as="sourcePoint" />
            <mxPoint x="1400" y="540" as="targetPoint" />
          </mxGeometry>
        </mxCell>
        <mxCell id="7nE0LP9qghIU5HuD1sIE-51" value="" style="endArrow=none;html=1;rounded=0;entryX=0.5;entryY=1;entryDx=0;entryDy=0;exitX=0.5;exitY=0;exitDx=0;exitDy=0;" edge="1" parent="1" source="7nE0LP9qghIU5HuD1sIE-48" target="7nE0LP9qghIU5HuD1sIE-4">
          <mxGeometry width="50" height="50" relative="1" as="geometry">
            <mxPoint x="1350" y="590" as="sourcePoint" />
            <mxPoint x="1400" y="540" as="targetPoint" />
          </mxGeometry>
        </mxCell>
        <mxCell id="7nE0LP9qghIU5HuD1sIE-52" value="transaction_data" style="rhombus;whiteSpace=wrap;html=1;" vertex="1" parent="1">
          <mxGeometry x="1660.38" y="750" width="80" height="80" as="geometry" />
        </mxCell>
        <mxCell id="7nE0LP9qghIU5HuD1sIE-53" value="" style="endArrow=none;html=1;rounded=0;entryX=1;entryY=0.5;entryDx=0;entryDy=0;exitX=0.5;exitY=0;exitDx=0;exitDy=0;" edge="1" parent="1" source="7nE0LP9qghIU5HuD1sIE-52" target="7nE0LP9qghIU5HuD1sIE-4">
          <mxGeometry width="50" height="50" relative="1" as="geometry">
            <mxPoint x="1260" y="570" as="sourcePoint" />
            <mxPoint x="1310" y="520" as="targetPoint" />
            <Array as="points">
              <mxPoint x="1700" y="470" />
            </Array>
          </mxGeometry>
        </mxCell>
        <mxCell id="7nE0LP9qghIU5HuD1sIE-54" value="cust_id" style="rhombus;whiteSpace=wrap;html=1;" vertex="1" parent="1">
          <mxGeometry x="1885.62" y="397.5" width="80" height="80" as="geometry" />
        </mxCell>
        <mxCell id="7nE0LP9qghIU5HuD1sIE-55" value="" style="endArrow=none;html=1;rounded=0;entryX=0;entryY=0.5;entryDx=0;entryDy=0;exitX=1;exitY=0.5;exitDx=0;exitDy=0;" edge="1" parent="1" source="7nE0LP9qghIU5HuD1sIE-54" target="7nE0LP9qghIU5HuD1sIE-6">
          <mxGeometry width="50" height="50" relative="1" as="geometry">
            <mxPoint x="1645.62" y="497.5" as="sourcePoint" />
            <mxPoint x="1695.62" y="447.5" as="targetPoint" />
          </mxGeometry>
        </mxCell>
        <mxCell id="7nE0LP9qghIU5HuD1sIE-57" value="age" style="ellipse;whiteSpace=wrap;html=1;" vertex="1" parent="1">
          <mxGeometry x="1841.87" y="507.5" width="92.5" height="60" as="geometry" />
        </mxCell>
        <mxCell id="7nE0LP9qghIU5HuD1sIE-58" value="gender" style="ellipse;whiteSpace=wrap;html=1;" vertex="1" parent="1">
          <mxGeometry x="1738.13" y="507.5" width="92.5" height="60" as="geometry" />
        </mxCell>
        <mxCell id="7nE0LP9qghIU5HuD1sIE-59" value="cust_email" style="ellipse;whiteSpace=wrap;html=1;" vertex="1" parent="1">
          <mxGeometry x="1948.12" y="507.5" width="92.5" height="60" as="geometry" />
        </mxCell>
        <mxCell id="7nE0LP9qghIU5HuD1sIE-60" value="address" style="ellipse;whiteSpace=wrap;html=1;" vertex="1" parent="1">
          <mxGeometry x="2108.12" y="507.5" width="90" height="60" as="geometry" />
        </mxCell>
        <mxCell id="7nE0LP9qghIU5HuD1sIE-61" value="name" style="ellipse;whiteSpace=wrap;html=1;" vertex="1" parent="1">
          <mxGeometry x="2298.12" y="507.5" width="92.5" height="60" as="geometry" />
        </mxCell>
        <mxCell id="7nE0LP9qghIU5HuD1sIE-62" value="" style="ellipse;whiteSpace=wrap;html=1;" vertex="1" parent="1">
          <mxGeometry x="2048.12" y="635" width="60" height="45" as="geometry" />
        </mxCell>
        <mxCell id="7nE0LP9qghIU5HuD1sIE-63" value="" style="ellipse;whiteSpace=wrap;html=1;" vertex="1" parent="1">
          <mxGeometry x="2198.12" y="635" width="60" height="45" as="geometry" />
        </mxCell>
        <mxCell id="7nE0LP9qghIU5HuD1sIE-64" value="" style="ellipse;whiteSpace=wrap;html=1;" vertex="1" parent="1">
          <mxGeometry x="2278.12" y="635" width="60" height="45" as="geometry" />
        </mxCell>
        <mxCell id="7nE0LP9qghIU5HuD1sIE-65" value="" style="ellipse;whiteSpace=wrap;html=1;" vertex="1" parent="1">
          <mxGeometry x="2358.12" y="635" width="60" height="45" as="geometry" />
        </mxCell>
        <mxCell id="7nE0LP9qghIU5HuD1sIE-66" value="" style="endArrow=none;html=1;rounded=0;entryX=0.5;entryY=1;entryDx=0;entryDy=0;exitX=0.5;exitY=0;exitDx=0;exitDy=0;" edge="1" parent="1" source="7nE0LP9qghIU5HuD1sIE-62" target="7nE0LP9qghIU5HuD1sIE-60">
          <mxGeometry width="50" height="50" relative="1" as="geometry">
            <mxPoint x="2168.12" y="727.5" as="sourcePoint" />
            <mxPoint x="2218.12" y="677.5" as="targetPoint" />
          </mxGeometry>
        </mxCell>
        <mxCell id="7nE0LP9qghIU5HuD1sIE-67" value="" style="endArrow=none;html=1;rounded=0;entryX=0.5;entryY=1;entryDx=0;entryDy=0;exitX=0.5;exitY=0;exitDx=0;exitDy=0;" edge="1" parent="1" source="7nE0LP9qghIU5HuD1sIE-63" target="7nE0LP9qghIU5HuD1sIE-60">
          <mxGeometry width="50" height="50" relative="1" as="geometry">
            <mxPoint x="2178.12" y="607.5" as="sourcePoint" />
            <mxPoint x="2228.12" y="557.5" as="targetPoint" />
          </mxGeometry>
        </mxCell>
        <mxCell id="7nE0LP9qghIU5HuD1sIE-68" value="" style="endArrow=none;html=1;rounded=0;entryX=0.5;entryY=1;entryDx=0;entryDy=0;exitX=0.5;exitY=0;exitDx=0;exitDy=0;" edge="1" parent="1" source="7nE0LP9qghIU5HuD1sIE-71" target="7nE0LP9qghIU5HuD1sIE-60">
          <mxGeometry width="50" height="50" relative="1" as="geometry">
            <mxPoint x="2138.12" y="747.5" as="sourcePoint" />
            <mxPoint x="2228.12" y="557.5" as="targetPoint" />
          </mxGeometry>
        </mxCell>
        <mxCell id="7nE0LP9qghIU5HuD1sIE-69" value="" style="endArrow=none;html=1;rounded=0;entryX=0.5;entryY=1;entryDx=0;entryDy=0;exitX=0.5;exitY=0;exitDx=0;exitDy=0;" edge="1" parent="1" source="7nE0LP9qghIU5HuD1sIE-64" target="7nE0LP9qghIU5HuD1sIE-61">
          <mxGeometry width="50" height="50" relative="1" as="geometry">
            <mxPoint x="2158.12" y="607.5" as="sourcePoint" />
            <mxPoint x="2208.12" y="557.5" as="targetPoint" />
          </mxGeometry>
        </mxCell>
        <mxCell id="7nE0LP9qghIU5HuD1sIE-70" value="" style="endArrow=none;html=1;rounded=0;entryX=0.5;entryY=1;entryDx=0;entryDy=0;exitX=0.5;exitY=0;exitDx=0;exitDy=0;" edge="1" parent="1" source="7nE0LP9qghIU5HuD1sIE-65" target="7nE0LP9qghIU5HuD1sIE-61">
          <mxGeometry width="50" height="50" relative="1" as="geometry">
            <mxPoint x="2158.12" y="607.5" as="sourcePoint" />
            <mxPoint x="2348.12" y="587.5" as="targetPoint" />
          </mxGeometry>
        </mxCell>
        <mxCell id="7nE0LP9qghIU5HuD1sIE-71" value="" style="ellipse;whiteSpace=wrap;html=1;" vertex="1" parent="1">
          <mxGeometry x="2123.12" y="635" width="60" height="45" as="geometry" />
        </mxCell>
        <mxCell id="7nE0LP9qghIU5HuD1sIE-72" value="" style="endArrow=none;html=1;rounded=0;entryX=0.5;entryY=1;entryDx=0;entryDy=0;exitX=0.5;exitY=0;exitDx=0;exitDy=0;" edge="1" parent="1" source="7nE0LP9qghIU5HuD1sIE-58" target="7nE0LP9qghIU5HuD1sIE-6">
          <mxGeometry width="50" height="50" relative="1" as="geometry">
            <mxPoint x="1784" y="510" as="sourcePoint" />
            <mxPoint x="2235.62" y="557.5" as="targetPoint" />
          </mxGeometry>
        </mxCell>
        <mxCell id="7nE0LP9qghIU5HuD1sIE-73" value="" style="endArrow=none;html=1;rounded=0;entryX=0.5;entryY=1;entryDx=0;entryDy=0;exitX=0.5;exitY=0;exitDx=0;exitDy=0;" edge="1" parent="1" source="7nE0LP9qghIU5HuD1sIE-57" target="7nE0LP9qghIU5HuD1sIE-6">
          <mxGeometry width="50" height="50" relative="1" as="geometry">
            <mxPoint x="2185.62" y="607.5" as="sourcePoint" />
            <mxPoint x="2235.62" y="557.5" as="targetPoint" />
          </mxGeometry>
        </mxCell>
        <mxCell id="7nE0LP9qghIU5HuD1sIE-74" value="" style="endArrow=none;html=1;rounded=0;entryX=0.5;entryY=1;entryDx=0;entryDy=0;exitX=0.5;exitY=0;exitDx=0;exitDy=0;" edge="1" parent="1" source="7nE0LP9qghIU5HuD1sIE-59" target="7nE0LP9qghIU5HuD1sIE-6">
          <mxGeometry width="50" height="50" relative="1" as="geometry">
            <mxPoint x="2185.62" y="607.5" as="sourcePoint" />
            <mxPoint x="2235.62" y="557.5" as="targetPoint" />
          </mxGeometry>
        </mxCell>
        <mxCell id="7nE0LP9qghIU5HuD1sIE-75" value="" style="endArrow=none;html=1;rounded=0;exitX=0.5;exitY=0;exitDx=0;exitDy=0;entryX=0.5;entryY=1;entryDx=0;entryDy=0;" edge="1" parent="1" source="7nE0LP9qghIU5HuD1sIE-60" target="7nE0LP9qghIU5HuD1sIE-6">
          <mxGeometry width="50" height="50" relative="1" as="geometry">
            <mxPoint x="2148.12" y="667.5" as="sourcePoint" />
            <mxPoint x="2198.12" y="617.5" as="targetPoint" />
          </mxGeometry>
        </mxCell>
        <mxCell id="7nE0LP9qghIU5HuD1sIE-76" value="" style="endArrow=none;html=1;rounded=0;entryX=0.5;entryY=1;entryDx=0;entryDy=0;exitX=0.5;exitY=0;exitDx=0;exitDy=0;" edge="1" parent="1" source="7nE0LP9qghIU5HuD1sIE-61" target="7nE0LP9qghIU5HuD1sIE-6">
          <mxGeometry width="50" height="50" relative="1" as="geometry">
            <mxPoint x="2148.12" y="667.5" as="sourcePoint" />
            <mxPoint x="2198.12" y="617.5" as="targetPoint" />
          </mxGeometry>
        </mxCell>
        <mxCell id="7nE0LP9qghIU5HuD1sIE-77" value="" style="rounded=0;whiteSpace=wrap;html=1;direction=south;" vertex="1" parent="1">
          <mxGeometry x="814.37" y="642.5" width="43.75" height="70" as="geometry" />
        </mxCell>
        <mxCell id="7nE0LP9qghIU5HuD1sIE-78" value="" style="rounded=0;whiteSpace=wrap;html=1;direction=south;" vertex="1" parent="1">
          <mxGeometry x="924.38" y="642.5" width="43.75" height="70" as="geometry" />
        </mxCell>
        <mxCell id="7nE0LP9qghIU5HuD1sIE-79" value="" style="rounded=0;whiteSpace=wrap;html=1;direction=south;" vertex="1" parent="1">
          <mxGeometry x="1031.88" y="642.5" width="43.75" height="70" as="geometry" />
        </mxCell>
        <mxCell id="7nE0LP9qghIU5HuD1sIE-80" value="" style="rounded=0;whiteSpace=wrap;html=1;direction=south;" vertex="1" parent="1">
          <mxGeometry x="1144.38" y="642.5" width="43.75" height="70" as="geometry" />
        </mxCell>
        <mxCell id="7nE0LP9qghIU5HuD1sIE-81" value="" style="rounded=0;whiteSpace=wrap;html=1;direction=south;" vertex="1" parent="1">
          <mxGeometry x="1331.88" y="630" width="43.75" height="70" as="geometry" />
        </mxCell>
        <mxCell id="7nE0LP9qghIU5HuD1sIE-82" value="" style="rounded=0;whiteSpace=wrap;html=1;direction=south;" vertex="1" parent="1">
          <mxGeometry x="1428.13" y="630" width="43.75" height="70" as="geometry" />
        </mxCell>
        <mxCell id="7nE0LP9qghIU5HuD1sIE-83" value="" style="rounded=0;whiteSpace=wrap;html=1;direction=south;" vertex="1" parent="1">
          <mxGeometry x="1524.38" y="630" width="43.75" height="70" as="geometry" />
        </mxCell>
        <mxCell id="7nE0LP9qghIU5HuD1sIE-84" value="" style="endArrow=none;html=1;rounded=0;entryX=0.5;entryY=1;entryDx=0;entryDy=0;exitX=0;exitY=0.5;exitDx=0;exitDy=0;" edge="1" parent="1" source="7nE0LP9qghIU5HuD1sIE-77" target="7nE0LP9qghIU5HuD1sIE-35">
          <mxGeometry width="50" height="50" relative="1" as="geometry">
            <mxPoint x="980" y="812.5" as="sourcePoint" />
            <mxPoint x="1030" y="762.5" as="targetPoint" />
          </mxGeometry>
        </mxCell>
        <mxCell id="7nE0LP9qghIU5HuD1sIE-85" value="" style="endArrow=none;html=1;rounded=0;entryX=0.5;entryY=1;entryDx=0;entryDy=0;exitX=0;exitY=0.5;exitDx=0;exitDy=0;" edge="1" parent="1" source="7nE0LP9qghIU5HuD1sIE-78" target="7nE0LP9qghIU5HuD1sIE-36">
          <mxGeometry width="50" height="50" relative="1" as="geometry">
            <mxPoint x="990" y="822.5" as="sourcePoint" />
            <mxPoint x="1040" y="772.5" as="targetPoint" />
          </mxGeometry>
        </mxCell>
        <mxCell id="7nE0LP9qghIU5HuD1sIE-86" value="" style="endArrow=none;html=1;rounded=0;entryX=0.5;entryY=1;entryDx=0;entryDy=0;exitX=0;exitY=0.5;exitDx=0;exitDy=0;" edge="1" parent="1" source="7nE0LP9qghIU5HuD1sIE-79" target="7nE0LP9qghIU5HuD1sIE-37">
          <mxGeometry width="50" height="50" relative="1" as="geometry">
            <mxPoint x="1000" y="832.5" as="sourcePoint" />
            <mxPoint x="1050" y="782.5" as="targetPoint" />
          </mxGeometry>
        </mxCell>
        <mxCell id="7nE0LP9qghIU5HuD1sIE-87" value="" style="endArrow=none;html=1;rounded=0;entryX=0.5;entryY=1;entryDx=0;entryDy=0;exitX=0;exitY=0.5;exitDx=0;exitDy=0;" edge="1" parent="1" source="7nE0LP9qghIU5HuD1sIE-80" target="7nE0LP9qghIU5HuD1sIE-38">
          <mxGeometry width="50" height="50" relative="1" as="geometry">
            <mxPoint x="1010" y="842.5" as="sourcePoint" />
            <mxPoint x="1060" y="792.5" as="targetPoint" />
          </mxGeometry>
        </mxCell>
        <mxCell id="7nE0LP9qghIU5HuD1sIE-88" value="" style="endArrow=none;html=1;rounded=0;entryX=0.5;entryY=1;entryDx=0;entryDy=0;exitX=0;exitY=0.5;exitDx=0;exitDy=0;" edge="1" parent="1" source="7nE0LP9qghIU5HuD1sIE-81" target="7nE0LP9qghIU5HuD1sIE-46">
          <mxGeometry width="50" height="50" relative="1" as="geometry">
            <mxPoint x="1471.25" y="530" as="sourcePoint" />
            <mxPoint x="1521.25" y="480" as="targetPoint" />
          </mxGeometry>
        </mxCell>
        <mxCell id="7nE0LP9qghIU5HuD1sIE-89" value="" style="endArrow=none;html=1;rounded=0;entryX=0.5;entryY=1;entryDx=0;entryDy=0;exitX=0;exitY=0.5;exitDx=0;exitDy=0;" edge="1" parent="1" source="7nE0LP9qghIU5HuD1sIE-82" target="7nE0LP9qghIU5HuD1sIE-47">
          <mxGeometry width="50" height="50" relative="1" as="geometry">
            <mxPoint x="1481.25" y="540" as="sourcePoint" />
            <mxPoint x="1531.25" y="490" as="targetPoint" />
          </mxGeometry>
        </mxCell>
        <mxCell id="7nE0LP9qghIU5HuD1sIE-90" value="" style="endArrow=none;html=1;rounded=0;entryX=0.5;entryY=1;entryDx=0;entryDy=0;exitX=0;exitY=0.5;exitDx=0;exitDy=0;" edge="1" parent="1" source="7nE0LP9qghIU5HuD1sIE-83" target="7nE0LP9qghIU5HuD1sIE-48">
          <mxGeometry width="50" height="50" relative="1" as="geometry">
            <mxPoint x="1491.25" y="550" as="sourcePoint" />
            <mxPoint x="1541.25" y="500" as="targetPoint" />
          </mxGeometry>
        </mxCell>
        <mxCell id="7nE0LP9qghIU5HuD1sIE-91" value="" style="rounded=0;whiteSpace=wrap;html=1;direction=south;" vertex="1" parent="1">
          <mxGeometry x="1762.5" y="602.5" width="43.75" height="70" as="geometry" />
        </mxCell>
        <mxCell id="7nE0LP9qghIU5HuD1sIE-92" value="" style="rounded=0;whiteSpace=wrap;html=1;direction=south;" vertex="1" parent="1">
          <mxGeometry x="1866.25" y="602.5" width="43.75" height="70" as="geometry" />
        </mxCell>
        <mxCell id="7nE0LP9qghIU5HuD1sIE-93" value="" style="rounded=0;whiteSpace=wrap;html=1;direction=south;" vertex="1" parent="1">
          <mxGeometry x="1972.5" y="602.5" width="43.75" height="70" as="geometry" />
        </mxCell>
        <mxCell id="7nE0LP9qghIU5HuD1sIE-94" value="" style="endArrow=none;html=1;rounded=0;exitX=0;exitY=0.5;exitDx=0;exitDy=0;entryX=0.5;entryY=1;entryDx=0;entryDy=0;" edge="1" parent="1" source="7nE0LP9qghIU5HuD1sIE-91" target="7nE0LP9qghIU5HuD1sIE-58">
          <mxGeometry width="50" height="50" relative="1" as="geometry">
            <mxPoint x="1654.12" y="707.5" as="sourcePoint" />
            <mxPoint x="1750" y="590" as="targetPoint" />
          </mxGeometry>
        </mxCell>
        <mxCell id="7nE0LP9qghIU5HuD1sIE-95" value="" style="endArrow=none;html=1;rounded=0;entryX=0.5;entryY=1;entryDx=0;entryDy=0;exitX=0;exitY=0.5;exitDx=0;exitDy=0;" edge="1" parent="1" source="7nE0LP9qghIU5HuD1sIE-92" target="7nE0LP9qghIU5HuD1sIE-57">
          <mxGeometry width="50" height="50" relative="1" as="geometry">
            <mxPoint x="1664.12" y="717.5" as="sourcePoint" />
            <mxPoint x="1664.12" y="687.5" as="targetPoint" />
          </mxGeometry>
        </mxCell>
        <mxCell id="7nE0LP9qghIU5HuD1sIE-96" value="" style="endArrow=none;html=1;rounded=0;entryX=0.5;entryY=1;entryDx=0;entryDy=0;exitX=0;exitY=0.5;exitDx=0;exitDy=0;" edge="1" parent="1" source="7nE0LP9qghIU5HuD1sIE-93" target="7nE0LP9qghIU5HuD1sIE-59">
          <mxGeometry width="50" height="50" relative="1" as="geometry">
            <mxPoint x="1674.12" y="727.5" as="sourcePoint" />
            <mxPoint x="1674.12" y="697.5" as="targetPoint" />
          </mxGeometry>
        </mxCell>
        <mxCell id="7nE0LP9qghIU5HuD1sIE-97" value="age" style="ellipse;whiteSpace=wrap;html=1;" vertex="1" parent="1">
          <mxGeometry x="2583.75" y="540" width="92.5" height="60" as="geometry" />
        </mxCell>
        <mxCell id="7nE0LP9qghIU5HuD1sIE-98" value="gender" style="ellipse;whiteSpace=wrap;html=1;" vertex="1" parent="1">
          <mxGeometry x="2480" y="540" width="92.5" height="60" as="geometry" />
        </mxCell>
        <mxCell id="7nE0LP9qghIU5HuD1sIE-99" value="cust_email" style="ellipse;whiteSpace=wrap;html=1;" vertex="1" parent="1">
          <mxGeometry x="2690" y="540" width="92.5" height="60" as="geometry" />
        </mxCell>
        <mxCell id="7nE0LP9qghIU5HuD1sIE-100" value="address" style="ellipse;whiteSpace=wrap;html=1;" vertex="1" parent="1">
          <mxGeometry x="2850" y="540" width="90" height="60" as="geometry" />
        </mxCell>
        <mxCell id="7nE0LP9qghIU5HuD1sIE-101" value="name" style="ellipse;whiteSpace=wrap;html=1;" vertex="1" parent="1">
          <mxGeometry x="3040" y="540" width="92.5" height="60" as="geometry" />
        </mxCell>
        <mxCell id="7nE0LP9qghIU5HuD1sIE-102" value="" style="ellipse;whiteSpace=wrap;html=1;" vertex="1" parent="1">
          <mxGeometry x="2790" y="667.5" width="60" height="45" as="geometry" />
        </mxCell>
        <mxCell id="7nE0LP9qghIU5HuD1sIE-103" value="" style="ellipse;whiteSpace=wrap;html=1;" vertex="1" parent="1">
          <mxGeometry x="2940" y="667.5" width="60" height="45" as="geometry" />
        </mxCell>
        <mxCell id="7nE0LP9qghIU5HuD1sIE-104" value="" style="ellipse;whiteSpace=wrap;html=1;" vertex="1" parent="1">
          <mxGeometry x="3020" y="667.5" width="60" height="45" as="geometry" />
        </mxCell>
        <mxCell id="7nE0LP9qghIU5HuD1sIE-105" value="" style="ellipse;whiteSpace=wrap;html=1;" vertex="1" parent="1">
          <mxGeometry x="3100" y="667.5" width="60" height="45" as="geometry" />
        </mxCell>
        <mxCell id="7nE0LP9qghIU5HuD1sIE-106" value="" style="endArrow=none;html=1;rounded=0;entryX=0.5;entryY=1;entryDx=0;entryDy=0;exitX=0.5;exitY=0;exitDx=0;exitDy=0;" edge="1" parent="1" source="7nE0LP9qghIU5HuD1sIE-102" target="7nE0LP9qghIU5HuD1sIE-100">
          <mxGeometry width="50" height="50" relative="1" as="geometry">
            <mxPoint x="2910" y="760" as="sourcePoint" />
            <mxPoint x="2960" y="710" as="targetPoint" />
          </mxGeometry>
        </mxCell>
        <mxCell id="7nE0LP9qghIU5HuD1sIE-107" value="" style="endArrow=none;html=1;rounded=0;entryX=0.5;entryY=1;entryDx=0;entryDy=0;exitX=0.5;exitY=0;exitDx=0;exitDy=0;" edge="1" parent="1" source="7nE0LP9qghIU5HuD1sIE-103" target="7nE0LP9qghIU5HuD1sIE-100">
          <mxGeometry width="50" height="50" relative="1" as="geometry">
            <mxPoint x="2920" y="640" as="sourcePoint" />
            <mxPoint x="2970" y="590" as="targetPoint" />
          </mxGeometry>
        </mxCell>
        <mxCell id="7nE0LP9qghIU5HuD1sIE-108" value="" style="endArrow=none;html=1;rounded=0;entryX=0.5;entryY=1;entryDx=0;entryDy=0;exitX=0.5;exitY=0;exitDx=0;exitDy=0;" edge="1" parent="1" source="7nE0LP9qghIU5HuD1sIE-111" target="7nE0LP9qghIU5HuD1sIE-100">
          <mxGeometry width="50" height="50" relative="1" as="geometry">
            <mxPoint x="2880" y="780" as="sourcePoint" />
            <mxPoint x="2970" y="590" as="targetPoint" />
          </mxGeometry>
        </mxCell>
        <mxCell id="7nE0LP9qghIU5HuD1sIE-109" value="" style="endArrow=none;html=1;rounded=0;entryX=0.5;entryY=1;entryDx=0;entryDy=0;exitX=0.5;exitY=0;exitDx=0;exitDy=0;" edge="1" parent="1" source="7nE0LP9qghIU5HuD1sIE-104" target="7nE0LP9qghIU5HuD1sIE-101">
          <mxGeometry width="50" height="50" relative="1" as="geometry">
            <mxPoint x="2900" y="640" as="sourcePoint" />
            <mxPoint x="2950" y="590" as="targetPoint" />
          </mxGeometry>
        </mxCell>
        <mxCell id="7nE0LP9qghIU5HuD1sIE-110" value="" style="endArrow=none;html=1;rounded=0;entryX=0.5;entryY=1;entryDx=0;entryDy=0;exitX=0.5;exitY=0;exitDx=0;exitDy=0;" edge="1" parent="1" source="7nE0LP9qghIU5HuD1sIE-105" target="7nE0LP9qghIU5HuD1sIE-101">
          <mxGeometry width="50" height="50" relative="1" as="geometry">
            <mxPoint x="2900" y="640" as="sourcePoint" />
            <mxPoint x="3090" y="620" as="targetPoint" />
          </mxGeometry>
        </mxCell>
        <mxCell id="7nE0LP9qghIU5HuD1sIE-111" value="" style="ellipse;whiteSpace=wrap;html=1;" vertex="1" parent="1">
          <mxGeometry x="2865" y="667.5" width="60" height="45" as="geometry" />
        </mxCell>
        <mxCell id="7nE0LP9qghIU5HuD1sIE-112" value="" style="rounded=0;whiteSpace=wrap;html=1;direction=south;" vertex="1" parent="1">
          <mxGeometry x="2504.38" y="635" width="43.75" height="70" as="geometry" />
        </mxCell>
        <mxCell id="7nE0LP9qghIU5HuD1sIE-113" value="" style="rounded=0;whiteSpace=wrap;html=1;direction=south;" vertex="1" parent="1">
          <mxGeometry x="2608.13" y="635" width="43.75" height="70" as="geometry" />
        </mxCell>
        <mxCell id="7nE0LP9qghIU5HuD1sIE-114" value="" style="rounded=0;whiteSpace=wrap;html=1;direction=south;" vertex="1" parent="1">
          <mxGeometry x="2714.38" y="635" width="43.75" height="70" as="geometry" />
        </mxCell>
        <mxCell id="7nE0LP9qghIU5HuD1sIE-115" value="" style="endArrow=none;html=1;rounded=0;entryX=0.5;entryY=1;entryDx=0;entryDy=0;exitX=0;exitY=0.5;exitDx=0;exitDy=0;" edge="1" parent="1" source="7nE0LP9qghIU5HuD1sIE-112" target="7nE0LP9qghIU5HuD1sIE-98">
          <mxGeometry width="50" height="50" relative="1" as="geometry">
            <mxPoint x="2396" y="740" as="sourcePoint" />
            <mxPoint x="2396" y="710" as="targetPoint" />
          </mxGeometry>
        </mxCell>
        <mxCell id="7nE0LP9qghIU5HuD1sIE-116" value="" style="endArrow=none;html=1;rounded=0;entryX=0.5;entryY=1;entryDx=0;entryDy=0;exitX=0;exitY=0.5;exitDx=0;exitDy=0;" edge="1" parent="1" source="7nE0LP9qghIU5HuD1sIE-113" target="7nE0LP9qghIU5HuD1sIE-97">
          <mxGeometry width="50" height="50" relative="1" as="geometry">
            <mxPoint x="2406" y="750" as="sourcePoint" />
            <mxPoint x="2406" y="720" as="targetPoint" />
          </mxGeometry>
        </mxCell>
        <mxCell id="7nE0LP9qghIU5HuD1sIE-117" value="" style="endArrow=none;html=1;rounded=0;entryX=0.5;entryY=1;entryDx=0;entryDy=0;exitX=0;exitY=0.5;exitDx=0;exitDy=0;" edge="1" parent="1" source="7nE0LP9qghIU5HuD1sIE-114" target="7nE0LP9qghIU5HuD1sIE-99">
          <mxGeometry width="50" height="50" relative="1" as="geometry">
            <mxPoint x="2416" y="760" as="sourcePoint" />
            <mxPoint x="2416" y="730" as="targetPoint" />
          </mxGeometry>
        </mxCell>
        <mxCell id="7nE0LP9qghIU5HuD1sIE-118" value="" style="endArrow=none;html=1;rounded=0;entryX=0.5;entryY=1;entryDx=0;entryDy=0;exitX=0.5;exitY=0;exitDx=0;exitDy=0;" edge="1" parent="1" source="7nE0LP9qghIU5HuD1sIE-98" target="7nE0LP9qghIU5HuD1sIE-5">
          <mxGeometry width="50" height="50" relative="1" as="geometry">
            <mxPoint x="2760" y="530" as="sourcePoint" />
            <mxPoint x="2810" y="480" as="targetPoint" />
          </mxGeometry>
        </mxCell>
        <mxCell id="7nE0LP9qghIU5HuD1sIE-119" value="" style="endArrow=none;html=1;rounded=0;entryX=0.5;entryY=1;entryDx=0;entryDy=0;exitX=0.5;exitY=0;exitDx=0;exitDy=0;" edge="1" parent="1" source="7nE0LP9qghIU5HuD1sIE-97" target="7nE0LP9qghIU5HuD1sIE-5">
          <mxGeometry width="50" height="50" relative="1" as="geometry">
            <mxPoint x="2760" y="530" as="sourcePoint" />
            <mxPoint x="2810" y="560" as="targetPoint" />
          </mxGeometry>
        </mxCell>
        <mxCell id="7nE0LP9qghIU5HuD1sIE-120" value="" style="endArrow=none;html=1;rounded=0;entryX=0.5;entryY=1;entryDx=0;entryDy=0;exitX=0.5;exitY=0;exitDx=0;exitDy=0;" edge="1" parent="1" source="7nE0LP9qghIU5HuD1sIE-99" target="7nE0LP9qghIU5HuD1sIE-5">
          <mxGeometry width="50" height="50" relative="1" as="geometry">
            <mxPoint x="2760" y="530" as="sourcePoint" />
            <mxPoint x="2810" y="480" as="targetPoint" />
          </mxGeometry>
        </mxCell>
        <mxCell id="7nE0LP9qghIU5HuD1sIE-121" value="" style="endArrow=none;html=1;rounded=0;entryX=0.5;entryY=1;entryDx=0;entryDy=0;exitX=0.5;exitY=0;exitDx=0;exitDy=0;" edge="1" parent="1" source="7nE0LP9qghIU5HuD1sIE-100" target="7nE0LP9qghIU5HuD1sIE-5">
          <mxGeometry width="50" height="50" relative="1" as="geometry">
            <mxPoint x="2810" y="530" as="sourcePoint" />
            <mxPoint x="2860" y="480" as="targetPoint" />
          </mxGeometry>
        </mxCell>
        <mxCell id="7nE0LP9qghIU5HuD1sIE-122" value="" style="endArrow=none;html=1;rounded=0;entryX=0.5;entryY=0;entryDx=0;entryDy=0;exitX=0.5;exitY=1;exitDx=0;exitDy=0;" edge="1" parent="1" source="7nE0LP9qghIU5HuD1sIE-5" target="7nE0LP9qghIU5HuD1sIE-101">
          <mxGeometry width="50" height="50" relative="1" as="geometry">
            <mxPoint x="2810" y="530" as="sourcePoint" />
            <mxPoint x="2860" y="480" as="targetPoint" />
          </mxGeometry>
        </mxCell>
        <mxCell id="7nE0LP9qghIU5HuD1sIE-123" value="admin_id" style="rhombus;whiteSpace=wrap;html=1;" vertex="1" parent="1">
          <mxGeometry x="2910" y="440" width="80" height="80" as="geometry" />
        </mxCell>
        <mxCell id="7nE0LP9qghIU5HuD1sIE-124" value="" style="endArrow=none;html=1;rounded=0;" edge="1" parent="1">
          <mxGeometry width="50" height="50" relative="1" as="geometry">
            <mxPoint x="2910" y="480" as="sourcePoint" />
            <mxPoint x="2850" y="480" as="targetPoint" />
          </mxGeometry>
        </mxCell>
        <mxCell id="7nE0LP9qghIU5HuD1sIE-125" value="" style="endArrow=none;html=1;rounded=0;entryX=0.5;entryY=1;entryDx=0;entryDy=0;exitX=0.5;exitY=0;exitDx=0;exitDy=0;" edge="1" parent="1" source="7nE0LP9qghIU5HuD1sIE-4" target="7nE0LP9qghIU5HuD1sIE-1">
          <mxGeometry width="50" height="50" relative="1" as="geometry">
            <mxPoint x="1650" y="380" as="sourcePoint" />
            <mxPoint x="1700" y="330" as="targetPoint" />
          </mxGeometry>
        </mxCell>
        <mxCell id="7nE0LP9qghIU5HuD1sIE-126" value="" style="endArrow=none;html=1;rounded=0;entryX=0.5;entryY=1;entryDx=0;entryDy=0;exitX=0.5;exitY=0;exitDx=0;exitDy=0;" edge="1" parent="1" source="7nE0LP9qghIU5HuD1sIE-5" target="7nE0LP9qghIU5HuD1sIE-1">
          <mxGeometry width="50" height="50" relative="1" as="geometry">
            <mxPoint x="1460" y="460" as="sourcePoint" />
            <mxPoint x="1710" y="110" as="targetPoint" />
          </mxGeometry>
        </mxCell>
        <mxCell id="7nE0LP9qghIU5HuD1sIE-127" value="" style="endArrow=none;html=1;rounded=0;entryX=0.5;entryY=1;entryDx=0;entryDy=0;exitX=0.5;exitY=0;exitDx=0;exitDy=0;" edge="1" parent="1" source="7nE0LP9qghIU5HuD1sIE-6" target="7nE0LP9qghIU5HuD1sIE-1">
          <mxGeometry width="50" height="50" relative="1" as="geometry">
            <mxPoint x="1470" y="470" as="sourcePoint" />
            <mxPoint x="1720" y="120" as="targetPoint" />
          </mxGeometry>
        </mxCell>
        <mxCell id="7nE0LP9qghIU5HuD1sIE-128" value="" style="endArrow=none;html=1;rounded=0;entryX=0.5;entryY=1;entryDx=0;entryDy=0;exitX=0.5;exitY=0;exitDx=0;exitDy=0;" edge="1" parent="1" source="7nE0LP9qghIU5HuD1sIE-2" target="7nE0LP9qghIU5HuD1sIE-1">
          <mxGeometry width="50" height="50" relative="1" as="geometry">
            <mxPoint x="1480" y="480" as="sourcePoint" />
            <mxPoint x="1730" y="130" as="targetPoint" />
          </mxGeometry>
        </mxCell>
        <mxCell id="7nE0LP9qghIU5HuD1sIE-129" value="" style="endArrow=none;html=1;rounded=0;entryX=0.5;entryY=1;entryDx=0;entryDy=0;exitX=0.5;exitY=0;exitDx=0;exitDy=0;" edge="1" parent="1" source="7nE0LP9qghIU5HuD1sIE-3" target="7nE0LP9qghIU5HuD1sIE-1">
          <mxGeometry width="50" height="50" relative="1" as="geometry">
            <mxPoint x="1490" y="490" as="sourcePoint" />
            <mxPoint x="1740" y="140" as="targetPoint" />
          </mxGeometry>
        </mxCell>
        <mxCell id="7nE0LP9qghIU5HuD1sIE-134" style="edgeStyle=orthogonalEdgeStyle;rounded=0;orthogonalLoop=1;jettySize=auto;html=1;entryX=0;entryY=0.5;entryDx=0;entryDy=0;dashed=1;" edge="1" parent="1" source="7nE0LP9qghIU5HuD1sIE-130" target="7nE0LP9qghIU5HuD1sIE-52">
          <mxGeometry relative="1" as="geometry">
            <mxPoint x="1280" y="540" as="targetPoint" />
            <Array as="points">
              <mxPoint x="1280" y="470" />
              <mxPoint x="1280" y="790" />
            </Array>
          </mxGeometry>
        </mxCell>
        <mxCell id="7nE0LP9qghIU5HuD1sIE-130" value="car_transaction" style="rhombus;whiteSpace=wrap;html=1;" vertex="1" parent="1">
          <mxGeometry x="1080" y="430" width="80" height="80" as="geometry" />
        </mxCell>
        <mxCell id="7nE0LP9qghIU5HuD1sIE-138" style="edgeStyle=orthogonalEdgeStyle;rounded=0;orthogonalLoop=1;jettySize=auto;html=1;entryX=1;entryY=0.5;entryDx=0;entryDy=0;dashed=1;" edge="1" parent="1" source="7nE0LP9qghIU5HuD1sIE-132" target="7nE0LP9qghIU5HuD1sIE-52">
          <mxGeometry relative="1" as="geometry">
            <Array as="points">
              <mxPoint x="2450" y="438" />
              <mxPoint x="2450" y="790" />
            </Array>
          </mxGeometry>
        </mxCell>
        <mxCell id="7nE0LP9qghIU5HuD1sIE-132" value="cust_data" style="rhombus;whiteSpace=wrap;html=1;" vertex="1" parent="1">
          <mxGeometry x="2158.12" y="397.5" width="80" height="80" as="geometry" />
        </mxCell>
        <mxCell id="7nE0LP9qghIU5HuD1sIE-133" value="" style="endArrow=none;html=1;rounded=0;entryX=1;entryY=0.5;entryDx=0;entryDy=0;exitX=0;exitY=0.5;exitDx=0;exitDy=0;" edge="1" parent="1" source="7nE0LP9qghIU5HuD1sIE-130" target="7nE0LP9qghIU5HuD1sIE-2">
          <mxGeometry width="50" height="50" relative="1" as="geometry">
            <mxPoint x="1300" y="450" as="sourcePoint" />
            <mxPoint x="1350" y="400" as="targetPoint" />
          </mxGeometry>
        </mxCell>
        <mxCell id="7nE0LP9qghIU5HuD1sIE-137" value="" style="endArrow=none;html=1;rounded=0;entryX=0;entryY=0.5;entryDx=0;entryDy=0;exitX=1;exitY=0.5;exitDx=0;exitDy=0;" edge="1" parent="1" source="7nE0LP9qghIU5HuD1sIE-6" target="7nE0LP9qghIU5HuD1sIE-132">
          <mxGeometry width="50" height="50" relative="1" as="geometry">
            <mxPoint x="1848.12" y="567.5" as="sourcePoint" />
            <mxPoint x="1898.12" y="517.5" as="targetPoint" />
          </mxGeometry>
        </mxCell>
        <mxCell id="7nE0LP9qghIU5HuD1sIE-141" value="Approving" style="ellipse;shape=doubleEllipse;whiteSpace=wrap;html=1;" vertex="1" parent="1">
          <mxGeometry x="3250" y="450" width="100" height="60" as="geometry" />
        </mxCell>
        <mxCell id="7nE0LP9qghIU5HuD1sIE-143" value="verification_date" style="ellipse;whiteSpace=wrap;html=1;" vertex="1" parent="1">
          <mxGeometry x="3253.75" y="540" width="92.5" height="60" as="geometry" />
        </mxCell>
        <mxCell id="7nE0LP9qghIU5HuD1sIE-145" value="" style="endArrow=none;html=1;rounded=0;exitX=0;exitY=0.5;exitDx=0;exitDy=0;" edge="1" parent="1" source="7nE0LP9qghIU5HuD1sIE-141" target="7nE0LP9qghIU5HuD1sIE-131">
          <mxGeometry width="50" height="50" relative="1" as="geometry">
            <mxPoint x="3250" y="478" as="sourcePoint" />
            <mxPoint x="2980" y="480" as="targetPoint" />
          </mxGeometry>
        </mxCell>
        <mxCell id="7nE0LP9qghIU5HuD1sIE-147" style="edgeStyle=orthogonalEdgeStyle;rounded=0;orthogonalLoop=1;jettySize=auto;html=1;entryX=1;entryY=0.5;entryDx=0;entryDy=0;dashed=1;" edge="1" parent="1" source="7nE0LP9qghIU5HuD1sIE-131" target="7nE0LP9qghIU5HuD1sIE-123">
          <mxGeometry relative="1" as="geometry" />
        </mxCell>
        <mxCell id="7nE0LP9qghIU5HuD1sIE-131" value="admin_data" style="rhombus;whiteSpace=wrap;html=1;" vertex="1" parent="1">
          <mxGeometry x="3110" y="440" width="80" height="80" as="geometry" />
        </mxCell>
        <mxCell id="7nE0LP9qghIU5HuD1sIE-148" value="" style="endArrow=none;html=1;rounded=0;entryX=0.5;entryY=1;entryDx=0;entryDy=0;exitX=0.5;exitY=0;exitDx=0;exitDy=0;" edge="1" parent="1" source="7nE0LP9qghIU5HuD1sIE-143" target="7nE0LP9qghIU5HuD1sIE-141">
          <mxGeometry width="50" height="50" relative="1" as="geometry">
            <mxPoint x="3050" y="560" as="sourcePoint" />
            <mxPoint x="3100" y="510" as="targetPoint" />
          </mxGeometry>
        </mxCell>
        <mxCell id="7nE0LP9qghIU5HuD1sIE-150" style="edgeStyle=orthogonalEdgeStyle;rounded=0;orthogonalLoop=1;jettySize=auto;html=1;entryX=1;entryY=0.5;entryDx=0;entryDy=0;" edge="1" parent="1" source="7nE0LP9qghIU5HuD1sIE-149" target="7nE0LP9qghIU5HuD1sIE-141">
          <mxGeometry relative="1" as="geometry" />
        </mxCell>
        <mxCell id="7nE0LP9qghIU5HuD1sIE-151" value="" style="edgeStyle=orthogonalEdgeStyle;rounded=0;orthogonalLoop=1;jettySize=auto;html=1;" edge="1" parent="1" source="7nE0LP9qghIU5HuD1sIE-149" target="7nE0LP9qghIU5HuD1sIE-141">
          <mxGeometry relative="1" as="geometry" />
        </mxCell>
        <mxCell id="7nE0LP9qghIU5HuD1sIE-152" style="edgeStyle=orthogonalEdgeStyle;rounded=0;orthogonalLoop=1;jettySize=auto;html=1;entryX=0.5;entryY=1;entryDx=0;entryDy=0;dashed=1;" edge="1" parent="1" source="7nE0LP9qghIU5HuD1sIE-149" target="7nE0LP9qghIU5HuD1sIE-52">
          <mxGeometry relative="1" as="geometry">
            <Array as="points">
              <mxPoint x="3440" y="850" />
              <mxPoint x="1700" y="850" />
            </Array>
          </mxGeometry>
        </mxCell>
        <mxCell id="7nE0LP9qghIU5HuD1sIE-149" value="transaction_data" style="rhombus;whiteSpace=wrap;html=1;" vertex="1" parent="1">
          <mxGeometry x="3400" y="440" width="80" height="80" as="geometry" />
        </mxCell>
        <mxCell id="7nE0LP9qghIU5HuD1sIE-155" style="edgeStyle=orthogonalEdgeStyle;rounded=0;orthogonalLoop=1;jettySize=auto;html=1;entryX=1;entryY=0.5;entryDx=0;entryDy=0;dashed=1;" edge="1" parent="1" source="7nE0LP9qghIU5HuD1sIE-153" target="7nE0LP9qghIU5HuD1sIE-24">
          <mxGeometry relative="1" as="geometry" />
        </mxCell>
        <mxCell id="7nE0LP9qghIU5HuD1sIE-153" value="car_driver" style="rhombus;whiteSpace=wrap;html=1;" vertex="1" parent="1">
          <mxGeometry x="790" y="430" width="80" height="80" as="geometry" />
        </mxCell>
        <mxCell id="7nE0LP9qghIU5HuD1sIE-154" value="" style="endArrow=none;html=1;rounded=0;entryX=0;entryY=0.5;entryDx=0;entryDy=0;exitX=1;exitY=0.5;exitDx=0;exitDy=0;" edge="1" parent="1" source="7nE0LP9qghIU5HuD1sIE-153" target="7nE0LP9qghIU5HuD1sIE-2">
          <mxGeometry width="50" height="50" relative="1" as="geometry">
            <mxPoint x="910" y="560" as="sourcePoint" />
            <mxPoint x="960" y="510" as="targetPoint" />
          </mxGeometry>
        </mxCell>
      </root>
    </mxGraphModel>
  </diagram>
</mxfile>
